<!--?xml version="1.0" standalone="no"?-->

<svg version="1.0" xmlns="http://www.w3.org/2000/svg" width="300.000000pt" height="300.000000pt" viewBox="0 0 300.000000 300.000000" preserveAspectRatio="xMidYMid meet">
<g transform="translate(0.000000,300.000000) scale(0.100000,-0.100000)" fill="#030303" stroke="none">
<path class="node" id="node1" d="M2025 2880 c-317 -40 -586 -299 -635 -610 -46 -300 68 -570 315 -745
125 -88 248 -125 421 -125 171 0 293 38 429 135 156 111 261 272 300 462 16
77 10 115 -21 127 -23 9 -103 -35 -450 -247 l-45 -27 -67 38 c-37 21 -111 63
-164 92 l-98 53 0 188 0 188 83 49 c45 26 160 93 255 147 185 106 203 125 166
166 -67 75 -320 131 -489 109z"></path>
<path class="node" id="node2" d="M738 1233 c-416 -418 -581 -589 -592 -617 -21 -51 -20 -122 3 -171
22 -47 244 -269 285 -284 39 -15 131 -14 170 3 21 9 253 233 616 596 320 320
580 583 578 585 -1 1 -20 10 -40 18 -67 28 -172 104 -242 175 -76 77 -113 128
-157 215 -16 31 -33 57 -37 57 -4 0 -267 -260 -584 -577z m-47 -506 c42 -36
53 -76 34 -123 -30 -76 -109 -96 -168 -44 -39 33 -49 67 -36 114 20 71 115
100 170 53z"></path>
</g>
<g transform="translate(0.000000,300.000000) scale(0.100000,-0.100000)" fill="#A4A4A4" stroke="none">

<path class="node" id="node4" d="M557 727 c-31 -25 -47 -71 -40 -111 7 -37 66 -86 104 -86 73 0 133
80 108 144 -29 73 -115 100 -172 53z"></path>
</g>
</svg>